ffmpeg started on 2025-10-01 at 11:14:11
Report written to "D:\Convert\FFMetrics\reports\ssim_report-6.txt"
Log level: 32
Command line:
ffmpeg -hide_banner -nostdin -i "F:\\\xc0\xed\xe8\xec\xe5\\\xce\xed\xe3\xee\xe8\xed\xe3\xe8\\!_37_\xc7\xe8\xec\xe0_2025\\JamClub\\\xc4\xee\xea\xf2\xee\xf0 \xd1\xf2\xee\xf3\xed\\\xd2\xc2-4\\JamClub_Dr_Stone_Science_Future_12_1080p_HEVC.mkv" -i "F:\\\xc0\xed\xe8\xec\xe5\\\xce\xed\xe3\xee\xe8\xed\xe3\xe8\\!_37_\xc7\xe8\xec\xe0_2025\\JamClub\\\xc4\xee\xea\xf2\xee\xf0 \xd1\xf2\xee\xf3\xed\\\xd2\xc2-4\\JamClub_Dr_Stone_Science_Future_12_1080p.mp4" -lavfi "[0:v]settb=AVTB,setpts=PTS-STARTPTS,format=pix_fmts=yuv420p10le,fps=24000/1001,scale=1920:1080:flags=bicubic:out_range=limited:out_chroma_loc=left,colorspace=format=yuv420p10:range=tv:primaries=bt709:trc=bt709:space=bt709:fast=0[main];[1:v]settb=AVTB,setpts=PTS-STARTPTS,format=pix_fmts=yuv420p,fps=24000/1001,scale=1920:1080:flags=bicubic:out_range=limited:out_chroma_loc=left,colorspace=format=yuv420p:irange=tv:iprimaries=bt709:itrc=bt709:ispace=bt709:range=tv:primaries=bt709:trc=bt709:space=bt709:fast=0[ref];[main][ref]ssim=eof_action=endall:stats_file='D\\:/Convert/FFMetrics/logs/ssim_logfile-6.txt'" -f null -
Input #0, matroska,webm, from 'F:\Аниме\Онгоинги\!_37_Зима_2025\JamClub\Доктор Стоун\ТВ-4\JamClub_Dr_Stone_Science_Future_12_1080p_HEVC.mkv':
  Metadata:
    COMPATIBLE_BRANDS: isomiso2avc1mp41
    MAJOR_BRAND     : isom
    MINOR_VERSION   : 512
    ENCODER         : Lavf61.7.100
  Duration: 00:24:22.38, start: -0.001000, bitrate: 1859 kb/s
  Stream #0:0: Video: hevc (Main 10), yuv420p10le(tv, bt709, progressive), 1920x1080 [SAR 1:1 DAR 16:9], 23.98 fps, 23.98 tbr, 1k tbn (default)
      Metadata:
        HANDLER_NAME    : VideoHandler
        VENDOR_ID       : [0][0][0][0]
        ENCODER         : Lavc61.19.100 libx265
        BPS             : 1660673
        DURATION        : 00:24:22.252708333
        NUMBER_OF_FRAMES: 35059
        NUMBER_OF_BYTES : 303540475
        _STATISTICS_WRITING_APP: mkvpropedit v94.0 ('Initiate') 64-bit
        _STATISTICS_WRITING_DATE_UTC: 2025-10-01 07:13:32
        _STATISTICS_TAGS: BPS DURATION NUMBER_OF_FRAMES NUMBER_OF_BYTES
  Stream #0:1(eng): Audio: aac (LC), 48000 Hz, stereo, fltp (default)
      Metadata:
        HANDLER_NAME    : SoundHandler
        VENDOR_ID       : [0][0][0][0]
        ENCODER         : Lavc61.19.100 aac
        BPS             : 195038
        DURATION        : 00:24:22.339000000
        NUMBER_OF_FRAMES: 68548
        NUMBER_OF_BYTES : 35651600
        _STATISTICS_WRITING_APP: mkvpropedit v94.0 ('Initiate') 64-bit
        _STATISTICS_WRITING_DATE_UTC: 2025-10-01 07:13:32
        _STATISTICS_TAGS: BPS DURATION NUMBER_OF_FRAMES NUMBER_OF_BYTES
Input #1, mov,mp4,m4a,3gp,3g2,mj2, from 'F:\Аниме\Онгоинги\!_37_Зима_2025\JamClub\Доктор Стоун\ТВ-4\JamClub_Dr_Stone_Science_Future_12_1080p.mp4':
  Metadata:
    major_brand     : isom
    minor_version   : 512
    compatible_brands: isomiso2avc1mp41
    encoder         : Lavf60.16.100
  Duration: 00:24:22.36, start: 0.000000, bitrate: 4957 kb/s
  Stream #1:0[0x1](und): Video: h264 (High) (avc1 / 0x31637661), yuv420p(progressive), 1920x1080 [SAR 1:1 DAR 16:9], 4759 kb/s, 23.98 fps, 23.98 tbr, 90k tbn (default)
      Metadata:
        handler_name    : VideoHandler
        vendor_id       : [0][0][0][0]
  Stream #1:1[0x2](eng): Audio: aac (LC) (mp4a / 0x6134706D), 48000 Hz, stereo, fltp, 191 kb/s (default)
      Metadata:
        handler_name    : SoundHandler
        vendor_id       : [0][0][0][0]
Stream mapping:
  Stream #0:0 (hevc) -> settb:default
  Stream #1:0 (h264) -> settb:default
  ssim:default -> Stream #0:0 (wrapped_avframe)
  Stream #0:1 -> #0:1 (aac (native) -> pcm_s16le (native))
Output #0, null, to 'pipe:':
  Metadata:
    COMPATIBLE_BRANDS: isomiso2avc1mp41
    MAJOR_BRAND     : isom
    MINOR_VERSION   : 512
    encoder         : Lavf61.7.100
  Stream #0:0: Video: wrapped_avframe, yuv420p10le(tv, bt709, progressive), 1920x1080 [SAR 1:1 DAR 16:9], q=2-31, 200 kb/s, 23.98 fps, 23.98 tbn
      Metadata:
        encoder         : Lavc61.19.100 wrapped_avframe
  Stream #0:1(eng): Audio: pcm_s16le, 48000 Hz, stereo, s16, 1536 kb/s (default)
      Metadata:
        HANDLER_NAME    : SoundHandler
        VENDOR_ID       : [0][0][0][0]
        _STATISTICS_TAGS: BPS DURATION NUMBER_OF_FRAMES NUMBER_OF_BYTES
        BPS             : 195038
        DURATION        : 00:24:22.339000000
        NUMBER_OF_FRAMES: 68548
        NUMBER_OF_BYTES : 35651600
        _STATISTICS_WRITING_APP: mkvpropedit v94.0 ('Initiate') 64-bit
        _STATISTICS_WRITING_DATE_UTC: 2025-10-01 07:13:32
        encoder         : Lavc61.19.100 pcm_s16le
frame=   99 fps=0.0 q=-0.0 size=N/A time=00:00:04.12 bitrate=N/A speed= 8.1x    frame=  240 fps=231 q=-0.0 size=N/A time=00:00:10.01 bitrate=N/A speed=9.64x    frame=  406 fps=262 q=-0.0 size=N/A time=00:00:16.93 bitrate=N/A speed=10.9x    frame=  598 fps=290 q=-0.0 size=N/A time=00:00:24.94 bitrate=N/A speed=12.1x    frame=  777 fps=302 q=-0.0 size=N/A time=00:00:32.40 bitrate=N/A speed=12.6x    frame=  971 fps=314 q=-0.0 size=N/A time=00:00:40.49 bitrate=N/A speed=13.1x    frame= 1170 fps=324 q=-0.0 size=N/A time=00:00:48.79 bitrate=N/A speed=13.5x    frame= 1328 fps=322 q=-0.0 size=N/A time=00:00:55.38 bitrate=N/A speed=13.4x    frame= 1463 fps=315 q=-0.0 size=N/A time=00:01:01.01 bitrate=N/A speed=13.1x    frame= 1595 fps=309 q=-0.0 size=N/A time=00:01:06.52 bitrate=N/A speed=12.9x    frame= 1723 fps=304 q=-0.0 size=N/A time=00:01:11.86 bitrate=N/A speed=12.7x    frame= 1855 fps=300 q=-0.0 size=N/A time=00:01:17.36 bitrate=N/A speed=12.5x    frame= 1993 fps=297 q=-0.0 size=N/A time=00:01:23.12 bitrate=N/A speed=12.4x    frame= 2162 fps=300 q=-0.0 size=N/A time=00:01:30.17 bitrate=N/A speed=12.5x    frame= 2289 fps=296 q=-0.0 size=N/A time=00:01:35.47 bitrate=N/A speed=12.4x    frame= 2415 fps=293 q=-0.0 size=N/A time=00:01:40.72 bitrate=N/A speed=12.2x    frame= 2543 fps=290 q=-0.0 size=N/A time=00:01:46.06 bitrate=N/A speed=12.1x    frame= 2668 fps=288 q=-0.0 size=N/A time=00:01:51.27 bitrate=N/A speed=  12x    frame= 2774 fps=283 q=-0.0 size=N/A time=00:01:55.69 bitrate=N/A speed=11.8x    frame= 2880 fps=279 q=-0.0 size=N/A time=00:02:00.12 bitrate=N/A speed=11.6x    frame= 3035 fps=280 q=-0.0 size=N/A time=00:02:06.58 bitrate=N/A speed=11.7x    frame= 3167 fps=279 q=-0.0 size=N/A time=00:02:12.09 bitrate=N/A speed=11.6x    frame= 3295 fps=278 q=-0.0 size=N/A time=00:02:17.42 bitrate=N/A speed=11.6x    frame= 3478 fps=281 q=-0.0 size=N/A time=00:02:25.06 bitrate=N/A speed=11.7x    frame= 3667 fps=284 q=-0.0 size=N/A time=00:02:32.94 bitrate=N/A speed=11.9x    frame= 3853 fps=287 q=-0.0 size=N/A time=00:02:40.70 bitrate=N/A speed=  12x    frame= 4046 fps=290 q=-0.0 size=N/A time=00:02:48.75 bitrate=N/A speed=12.1x    frame= 4229 fps=293 q=-0.0 size=N/A time=00:02:56.38 bitrate=N/A speed=12.2x    frame= 4401 fps=294 q=-0.0 size=N/A time=00:03:03.55 bitrate=N/A speed=12.3x    frame= 4586 fps=296 q=-0.0 size=N/A time=00:03:11.27 bitrate=N/A speed=12.4x    frame= 4773 fps=298 q=-0.0 size=N/A time=00:03:19.07 bitrate=N/A speed=12.4x    frame= 4962 fps=300 q=-0.0 size=N/A time=00:03:26.95 bitrate=N/A speed=12.5x    frame= 5156 fps=302 q=-0.0 size=N/A time=00:03:35.04 bitrate=N/A speed=12.6x    frame= 5331 fps=304 q=-0.0 size=N/A time=00:03:42.34 bitrate=N/A speed=12.7x    frame= 5510 fps=305 q=-0.0 size=N/A time=00:03:49.81 bitrate=N/A speed=12.7x    frame= 5695 fps=306 q=-0.0 size=N/A time=00:03:57.52 bitrate=N/A speed=12.8x    frame= 5852 fps=306 q=-0.0 size=N/A time=00:04:04.07 bitrate=N/A speed=12.8x    frame= 6026 fps=307 q=-0.0 size=N/A time=00:04:11.33 bitrate=N/A speed=12.8x    frame= 6210 fps=308 q=-0.0 size=N/A time=00:04:19.00 bitrate=N/A speed=12.9x    frame= 6394 fps=310 q=-0.0 size=N/A time=00:04:26.68 bitrate=N/A speed=12.9x    frame= 6566 fps=310 q=-0.0 size=N/A time=00:04:33.85 bitrate=N/A speed=12.9x    frame= 6750 fps=311 q=-0.0 size=N/A time=00:04:41.53 bitrate=N/A speed=  13x    frame= 6929 fps=312 q=-0.0 size=N/A time=00:04:48.99 bitrate=N/A speed=  13x    frame= 7105 fps=313 q=-0.0 size=N/A time=00:04:56.33 bitrate=N/A speed=  13x    frame= 7297 fps=314 q=-0.0 size=N/A time=00:05:04.34 bitrate=N/A speed=13.1x    frame= 7482 fps=315 q=-0.0 size=N/A time=00:05:12.06 bitrate=N/A speed=13.1x    frame= 7668 fps=316 q=-0.0 size=N/A time=00:05:19.81 bitrate=N/A speed=13.2x    frame= 7833 fps=316 q=-0.0 size=N/A time=00:05:26.70 bitrate=N/A speed=13.2x    frame= 8012 fps=317 q=-0.0 size=N/A time=00:05:34.16 bitrate=N/A speed=13.2x    frame= 8187 fps=317 q=-0.0 size=N/A time=00:05:41.46 bitrate=N/A speed=13.2x    frame= 8355 fps=317 q=-0.0 size=N/A time=00:05:48.47 bitrate=N/A speed=13.2x    frame= 8537 fps=318 q=-0.0 size=N/A time=00:05:56.06 bitrate=N/A speed=13.3x    frame= 8715 fps=319 q=-0.0 size=N/A time=00:06:03.48 bitrate=N/A speed=13.3x    frame= 8898 fps=319 q=-0.0 size=N/A time=00:06:11.12 bitrate=N/A speed=13.3x    frame= 9083 fps=320 q=-0.0 size=N/A time=00:06:18.83 bitrate=N/A speed=13.3x    frame= 9271 fps=321 q=-0.0 size=N/A time=00:06:26.67 bitrate=N/A speed=13.4x    frame= 9451 fps=321 q=-0.0 size=N/A time=00:06:34.18 bitrate=N/A speed=13.4x    frame= 9624 fps=321 q=-0.0 size=N/A time=00:06:41.40 bitrate=N/A speed=13.4x    frame= 9804 fps=322 q=-0.0 size=N/A time=00:06:48.90 bitrate=N/A speed=13.4x    frame= 9988 fps=322 q=-0.0 size=N/A time=00:06:56.58 bitrate=N/A speed=13.4x    frame=10178 fps=323 q=-0.0 size=N/A time=00:07:04.50 bitrate=N/A speed=13.5x    frame=10360 fps=324 q=-0.0 size=N/A time=00:07:12.09 bitrate=N/A speed=13.5x    frame=10545 fps=324 q=-0.0 size=N/A time=00:07:19.81 bitrate=N/A speed=13.5x    frame=10729 fps=325 q=-0.0 size=N/A time=00:07:27.48 bitrate=N/A speed=13.5x    frame=10915 fps=325 q=-0.0 size=N/A time=00:07:35.24 bitrate=N/A speed=13.6x    frame=11110 fps=326 q=-0.0 size=N/A time=00:07:43.37 bitrate=N/A speed=13.6x    frame=11274 fps=326 q=-0.0 size=N/A time=00:07:50.21 bitrate=N/A speed=13.6x    frame=11433 fps=326 q=-0.0 size=N/A time=00:07:56.85 bitrate=N/A speed=13.6x    frame=11593 fps=325 q=-0.0 size=N/A time=00:08:03.52 bitrate=N/A speed=13.6x    frame=11757 fps=325 q=-0.0 size=N/A time=00:08:10.36 bitrate=N/A speed=13.6x    frame=11939 fps=326 q=-0.0 size=N/A time=00:08:17.95 bitrate=N/A speed=13.6x    frame=12124 fps=326 q=-0.0 size=N/A time=00:08:25.67 bitrate=N/A speed=13.6x    frame=12297 fps=326 q=-0.0 size=N/A time=00:08:32.88 bitrate=N/A speed=13.6x    frame=12472 fps=326 q=-0.0 size=N/A time=00:08:40.18 bitrate=N/A speed=13.6x    frame=12650 fps=327 q=-0.0 size=N/A time=00:08:47.61 bitrate=N/A speed=13.6x    frame=12822 fps=327 q=-0.0 size=N/A time=00:08:54.78 bitrate=N/A speed=13.6x    frame=13000 fps=327 q=-0.0 size=N/A time=00:09:02.20 bitrate=N/A speed=13.6x    frame=13157 fps=327 q=-0.0 size=N/A time=00:09:08.75 bitrate=N/A speed=13.6x    frame=13320 fps=327 q=-0.0 size=N/A time=00:09:15.55 bitrate=N/A speed=13.6x    frame=13503 fps=327 q=-0.0 size=N/A time=00:09:23.18 bitrate=N/A speed=13.6x    frame=13677 fps=327 q=-0.0 size=N/A time=00:09:30.44 bitrate=N/A speed=13.6x    frame=13850 fps=327 q=-0.0 size=N/A time=00:09:37.66 bitrate=N/A speed=13.6x    frame=14019 fps=327 q=-0.0 size=N/A time=00:09:44.70 bitrate=N/A speed=13.6x    frame=14197 fps=327 q=-0.0 size=N/A time=00:09:52.13 bitrate=N/A speed=13.7x    frame=14380 fps=328 q=-0.0 size=N/A time=00:09:59.76 bitrate=N/A speed=13.7x    frame=14562 fps=328 q=-0.0 size=N/A time=00:10:07.35 bitrate=N/A speed=13.7x    frame=14737 fps=328 q=-0.0 size=N/A time=00:10:14.65 bitrate=N/A speed=13.7x    frame=14886 fps=328 q=-0.0 size=N/A time=00:10:20.87 bitrate=N/A speed=13.7x    frame=15039 fps=327 q=-0.0 size=N/A time=00:10:27.25 bitrate=N/A speed=13.7x    frame=15204 fps=327 q=-0.0 size=N/A time=00:10:34.13 bitrate=N/A speed=13.7x    frame=15373 fps=327 q=-0.0 size=N/A time=00:10:41.18 bitrate=N/A speed=13.7x    frame=15543 fps=327 q=-0.0 size=N/A time=00:10:48.27 bitrate=N/A speed=13.7x    frame=15718 fps=327 q=-0.0 size=N/A time=00:10:55.57 bitrate=N/A speed=13.7x    frame=15894 fps=328 q=-0.0 size=N/A time=00:11:02.91 bitrate=N/A speed=13.7x    frame=16061 fps=328 q=-0.0 size=N/A time=00:11:09.87 bitrate=N/A speed=13.7x    frame=16230 fps=328 q=-0.0 size=N/A time=00:11:16.92 bitrate=N/A speed=13.7x    frame=16377 fps=327 q=-0.0 size=N/A time=00:11:23.05 bitrate=N/A speed=13.6x    frame=16561 fps=327 q=-0.0 size=N/A time=00:11:30.73 bitrate=N/A speed=13.7x    frame=16729 fps=327 q=-0.0 size=N/A time=00:11:37.73 bitrate=N/A speed=13.7x    frame=16901 fps=328 q=-0.0 size=N/A time=00:11:44.91 bitrate=N/A speed=13.7x    frame=17083 fps=328 q=-0.0 size=N/A time=00:11:52.50 bitrate=N/A speed=13.7x    frame=17274 fps=328 q=-0.0 size=N/A time=00:12:00.46 bitrate=N/A speed=13.7x    frame=17458 fps=328 q=-0.0 size=N/A time=00:12:08.14 bitrate=N/A speed=13.7x    frame=17640 fps=329 q=-0.0 size=N/A time=00:12:15.73 bitrate=N/A speed=13.7x    frame=17816 fps=329 q=-0.0 size=N/A time=00:12:23.07 bitrate=N/A speed=13.7x    frame=17970 fps=329 q=-0.0 size=N/A time=00:12:29.49 bitrate=N/A speed=13.7x    frame=18146 fps=329 q=-0.0 size=N/A time=00:12:36.83 bitrate=N/A speed=13.7x    frame=18321 fps=329 q=-0.0 size=N/A time=00:12:44.13 bitrate=N/A speed=13.7x    frame=18496 fps=329 q=-0.0 size=N/A time=00:12:51.43 bitrate=N/A speed=13.7x    frame=18666 fps=329 q=-0.0 size=N/A time=00:12:58.52 bitrate=N/A speed=13.7x    frame=18862 fps=329 q=-0.0 size=N/A time=00:13:06.70 bitrate=N/A speed=13.7x    frame=19031 fps=329 q=-0.0 size=N/A time=00:13:13.75 bitrate=N/A speed=13.7x    frame=19203 fps=329 q=-0.0 size=N/A time=00:13:20.92 bitrate=N/A speed=13.7x    frame=19395 fps=330 q=-0.0 size=N/A time=00:13:28.93 bitrate=N/A speed=13.8x    frame=19551 fps=329 q=-0.0 size=N/A time=00:13:35.43 bitrate=N/A speed=13.7x    frame=19669 fps=329 q=-0.0 size=N/A time=00:13:40.36 bitrate=N/A speed=13.7x    frame=19811 fps=328 q=-0.0 size=N/A time=00:13:46.28 bitrate=N/A speed=13.7x    frame=19987 fps=328 q=-0.0 size=N/A time=00:13:53.62 bitrate=N/A speed=13.7x    frame=20163 fps=328 q=-0.0 size=N/A time=00:14:00.96 bitrate=N/A speed=13.7x    frame=20348 fps=329 q=-0.0 size=N/A time=00:14:08.68 bitrate=N/A speed=13.7x    frame=20516 fps=329 q=-0.0 size=N/A time=00:14:15.68 bitrate=N/A speed=13.7x    frame=20702 fps=329 q=-0.0 size=N/A time=00:14:23.44 bitrate=N/A speed=13.7x    frame=20872 fps=329 q=-0.0 size=N/A time=00:14:30.53 bitrate=N/A speed=13.7x    frame=21058 fps=329 q=-0.0 size=N/A time=00:14:38.29 bitrate=N/A speed=13.7x    frame=21241 fps=329 q=-0.0 size=N/A time=00:14:45.92 bitrate=N/A speed=13.7x    frame=21428 fps=330 q=-0.0 size=N/A time=00:14:53.72 bitrate=N/A speed=13.7x    frame=21619 fps=330 q=-0.0 size=N/A time=00:15:01.69 bitrate=N/A speed=13.8x    frame=21820 fps=330 q=-0.0 size=N/A time=00:15:10.07 bitrate=N/A speed=13.8x    frame=22020 fps=331 q=-0.0 size=N/A time=00:15:18.41 bitrate=N/A speed=13.8x    frame=22195 fps=331 q=-0.0 size=N/A time=00:15:25.71 bitrate=N/A speed=13.8x    frame=22373 fps=331 q=-0.0 size=N/A time=00:15:33.14 bitrate=N/A speed=13.8x    frame=22547 fps=331 q=-0.0 size=N/A time=00:15:40.39 bitrate=N/A speed=13.8x    frame=22731 fps=331 q=-0.0 size=N/A time=00:15:48.07 bitrate=N/A speed=13.8x    frame=22906 fps=331 q=-0.0 size=N/A time=00:15:55.37 bitrate=N/A speed=13.8x    frame=23051 fps=331 q=-0.0 size=N/A time=00:16:01.41 bitrate=N/A speed=13.8x    frame=23232 fps=331 q=-0.0 size=N/A time=00:16:08.96 bitrate=N/A speed=13.8x    frame=23427 fps=331 q=-0.0 size=N/A time=00:16:17.10 bitrate=N/A speed=13.8x    frame=23608 fps=332 q=-0.0 size=N/A time=00:16:24.65 bitrate=N/A speed=13.8x    frame=23802 fps=332 q=-0.0 size=N/A time=00:16:32.74 bitrate=N/A speed=13.8x    frame=23983 fps=332 q=-0.0 size=N/A time=00:16:40.29 bitrate=N/A speed=13.8x    frame=24180 fps=332 q=-0.0 size=N/A time=00:16:48.50 bitrate=N/A speed=13.9x    frame=24373 fps=333 q=-0.0 size=N/A time=00:16:56.55 bitrate=N/A speed=13.9x    frame=24566 fps=333 q=-0.0 size=N/A time=00:17:04.60 bitrate=N/A speed=13.9x    frame=24740 fps=333 q=-0.0 size=N/A time=00:17:11.86 bitrate=N/A speed=13.9x    frame=24906 fps=333 q=-0.0 size=N/A time=00:17:18.78 bitrate=N/A speed=13.9x    frame=25074 fps=333 q=-0.0 size=N/A time=00:17:25.79 bitrate=N/A speed=13.9x    frame=25271 fps=333 q=-0.0 size=N/A time=00:17:34.01 bitrate=N/A speed=13.9x    frame=25471 fps=333 q=-0.0 size=N/A time=00:17:42.35 bitrate=N/A speed=13.9x    frame=25656 fps=334 q=-0.0 size=N/A time=00:17:50.06 bitrate=N/A speed=13.9x    frame=25851 fps=334 q=-0.0 size=N/A time=00:17:58.20 bitrate=N/A speed=13.9x    frame=26051 fps=334 q=-0.0 size=N/A time=00:18:06.54 bitrate=N/A speed=13.9x    frame=26231 fps=334 q=-0.0 size=N/A time=00:18:14.05 bitrate=N/A speed=13.9x    frame=26360 fps=334 q=-0.0 size=N/A time=00:18:19.43 bitrate=N/A speed=13.9x    frame=26545 fps=334 q=-0.0 size=N/A time=00:18:27.14 bitrate=N/A speed=13.9x    frame=26678 fps=334 q=-0.0 size=N/A time=00:18:32.69 bitrate=N/A speed=13.9x    frame=26847 fps=333 q=-0.0 size=N/A time=00:18:39.74 bitrate=N/A speed=13.9x    frame=27034 fps=334 q=-0.0 size=N/A time=00:18:47.54 bitrate=N/A speed=13.9x    frame=27222 fps=334 q=-0.0 size=N/A time=00:18:55.38 bitrate=N/A speed=13.9x    frame=27414 fps=334 q=-0.0 size=N/A time=00:19:03.39 bitrate=N/A speed=13.9x    frame=27572 fps=334 q=-0.0 size=N/A time=00:19:09.98 bitrate=N/A speed=13.9x    frame=27754 fps=334 q=-0.0 size=N/A time=00:19:17.57 bitrate=N/A speed=13.9x    frame=27951 fps=334 q=-0.0 size=N/A time=00:19:25.78 bitrate=N/A speed=13.9x    frame=28138 fps=335 q=-0.0 size=N/A time=00:19:33.58 bitrate=N/A speed=  14x    frame=28316 fps=335 q=-0.0 size=N/A time=00:19:41.01 bitrate=N/A speed=  14x    frame=28484 fps=335 q=-0.0 size=N/A time=00:19:48.02 bitrate=N/A speed=  14x    frame=28663 fps=335 q=-0.0 size=N/A time=00:19:55.48 bitrate=N/A speed=  14x    frame=28817 fps=334 q=-0.0 size=N/A time=00:20:01.90 bitrate=N/A speed=13.9x    frame=29000 fps=335 q=-0.0 size=N/A time=00:20:09.54 bitrate=N/A speed=  14x    frame=29179 fps=335 q=-0.0 size=N/A time=00:20:17.00 bitrate=N/A speed=  14x    frame=29347 fps=335 q=-0.0 size=N/A time=00:20:24.01 bitrate=N/A speed=  14x    frame=29536 fps=335 q=-0.0 size=N/A time=00:20:31.89 bitrate=N/A speed=  14x    frame=29722 fps=335 q=-0.0 size=N/A time=00:20:39.65 bitrate=N/A speed=  14x    frame=29905 fps=335 q=-0.0 size=N/A time=00:20:47.28 bitrate=N/A speed=  14x    frame=30098 fps=335 q=-0.0 size=N/A time=00:20:55.33 bitrate=N/A speed=  14x    frame=30279 fps=335 q=-0.0 size=N/A time=00:21:02.88 bitrate=N/A speed=  14x    frame=30467 fps=335 q=-0.0 size=N/A time=00:21:10.72 bitrate=N/A speed=  14x    frame=30640 fps=336 q=-0.0 size=N/A time=00:21:17.94 bitrate=N/A speed=  14x    frame=30823 fps=336 q=-0.0 size=N/A time=00:21:25.57 bitrate=N/A speed=  14x    frame=31007 fps=336 q=-0.0 size=N/A time=00:21:33.25 bitrate=N/A speed=  14x    frame=31190 fps=336 q=-0.0 size=N/A time=00:21:40.88 bitrate=N/A speed=  14x    frame=31381 fps=336 q=-0.0 size=N/A time=00:21:48.84 bitrate=N/A speed=  14x    frame=31565 fps=336 q=-0.0 size=N/A time=00:21:56.52 bitrate=N/A speed=  14x    frame=31748 fps=336 q=-0.0 size=N/A time=00:22:04.15 bitrate=N/A speed=  14x    frame=31924 fps=336 q=-0.0 size=N/A time=00:22:11.49 bitrate=N/A speed=  14x    frame=32096 fps=336 q=-0.0 size=N/A time=00:22:18.67 bitrate=N/A speed=  14x    frame=32234 fps=336 q=-0.0 size=N/A time=00:22:24.42 bitrate=N/A speed=  14x    frame=32410 fps=336 q=-0.0 size=N/A time=00:22:31.76 bitrate=N/A speed=  14x    frame=32584 fps=336 q=-0.0 size=N/A time=00:22:39.02 bitrate=N/A speed=  14x    frame=32778 fps=336 q=-0.0 size=N/A time=00:22:47.11 bitrate=N/A speed=  14x    frame=32965 fps=336 q=-0.0 size=N/A time=00:22:54.91 bitrate=N/A speed=  14x    frame=33159 fps=336 q=-0.0 size=N/A time=00:23:03.00 bitrate=N/A speed=  14x    frame=33329 fps=336 q=-0.0 size=N/A time=00:23:10.09 bitrate=N/A speed=  14x    frame=33501 fps=336 q=-0.0 size=N/A time=00:23:17.27 bitrate=N/A speed=  14x    frame=33693 fps=337 q=-0.0 size=N/A time=00:23:25.27 bitrate=N/A speed=  14x    frame=33878 fps=337 q=-0.0 size=N/A time=00:23:32.99 bitrate=N/A speed=  14x    frame=34057 fps=337 q=-0.0 size=N/A time=00:23:40.46 bitrate=N/A speed=  14x    frame=34237 fps=337 q=-0.0 size=N/A time=00:23:47.96 bitrate=N/A speed=  14x    frame=34406 fps=337 q=-0.0 size=N/A time=00:23:55.01 bitrate=N/A speed=  14x    frame=34550 fps=336 q=-0.0 size=N/A time=00:24:01.02 bitrate=N/A speed=  14x    frame=34723 fps=336 q=-0.0 size=N/A time=00:24:08.23 bitrate=N/A speed=  14x    frame=34881 fps=336 q=-0.0 size=N/A time=00:24:14.82 bitrate=N/A speed=  14x    [Parsed_ssim_12 @ 000001b7aa9d0780] SSIM Y:0.994254 (22.406113) U:0.993740 (22.034583) V:0.993905 (22.150468) All:0.994110 (22.298913)
[out#0/null @ 000001b7941f4980] video:15064KiB audio:274192KiB subtitle:0KiB other streams:0KiB global headers:0KiB muxing overhead: unknown
frame=35059 fps=337 q=-0.0 Lsize=N/A time=00:24:22.25 bitrate=N/A speed=  14x    
